# xmcd
#
# Track frame offsets: 
#        150
#        10573
#        21120
#        32520
#        40792
#        47284
#        59646
#        70500
#        84689
#        98925
#        112727
#        116467
#        120843
#        131343
#        141852
#        152364
#        153608
#        154444
#        156249
#        159536
#        162029
#        172746
#        182532
#        192302
#        203740
#        213367
#        224133
#        235328
#        244916
#        254922
#        265017
#        276351
#        287897
#
# Disc length: 4010 seconds
#
# Revision: 0
# Processed by: cddbd v1.5.2PL0 Copyright (c) Steve Scherf et al.
# Submitted via: ExactAudioCopy v0.99pb5
#
DISCID=c50fa821
DTITLE=The Beatles  - Contemporary Sound - Complete Revisionist Remixe
DTITLE=s D 2
DYEAR=1900
DGENRE=
TTITLE0=I Feel Fine (ant dvd)
TTITLE1=I Feel Fine (rockband)
TTITLE2=Rock and Roll Music (ant dvd)
TTITLE3=I_ll Follow the Sun (ant dvd)
TTITLE4=Eight Days a Week (ant dvd)
TTITLE5=Eight Days a Week (rockband)
TTITLE6=Leave My Kitten Alone (ant dvd)
TTITLE7=Ticket to Ride (1993 promo video)
TTITLE8=Ticket to Ride (help dvd)
TTITLE9=Ticket to Ride (rockband)
TTITLE10=Yes It Is (ant dvd)
TTITLE11=Help! (imagine laser)
TTITLE12=Help! (1993 promo video)
TTITLE13=Help! (help dvd)
TTITLE14=Help! (LOVE)
TTITLE15=I_m Down (ant dvd)
TTITLE16=Help! (ant dvd)
TTITLE17=Another Girl (ant dvd)
TTITLE18=Ticket to Ride (ant dvd)
TTITLE19=The Night Before (ant dvd)
TTITLE20=The Night Before (help dvd)
TTITLE21=You_re Got to Hide Your Love Away (ant dvd)
TTITLE22=You_re Got to Hide Your Love Away (help dvd)
TTITLE23=I Need You (help dvd)
TTITLE24=Another Girl (help dvd)
TTITLE25=You_re Going to Lose That Girl (ant dvd)
TTITLE26=You_re Going to Lose That Girl (help dvd)
TTITLE27=Yesterday (LOVE)
TTITLE28=We Can Work It Out (ant laser)
TTITLE29=We Can Work It Out (ant dvd)
TTITLE30=Day Tripper (ant laser-dc edit)
TTITLE31=Day Tripper (ant dvd)
TTITLE32=Day Tripper (rockband)
EXTD=
EXTT0=
EXTT1=
EXTT2=
EXTT3=
EXTT4=
EXTT5=
EXTT6=
EXTT7=
EXTT8=
EXTT9=
EXTT10=
EXTT11=
EXTT12=
EXTT13=
EXTT14=
EXTT15=
EXTT16=
EXTT17=
EXTT18=
EXTT19=
EXTT20=
EXTT21=
EXTT22=
EXTT23=
EXTT24=
EXTT25=
EXTT26=
EXTT27=
EXTT28=
EXTT29=
EXTT30=
EXTT31=
EXTT32=
PLAYORDER=
